<svg width="301" height="213" viewBox="0 0 301 213" fill="none" xmlns="http://www.w3.org/2000/svg">
<path d="M76.3873 209.374L77.9628 4.48549C77.9749 2.9161 79.7073 1.97147 81.0331 2.81137L244.101 106.116C245.35 106.907 245.339 108.732 244.081 109.508L79.4374 211.091C78.0991 211.917 76.3752 210.946 76.3873 209.374Z" fill="#4CA6A7"/>
<path d="M183.479 125.652H177.18C176.143 125.652 175.624 125.153 175.624 124.155V81.3061C175.624 80.308 176.143 79.8089 177.18 79.8089H195.262C199.116 79.8089 202.105 80.8308 204.229 82.8746C206.353 84.8709 207.416 87.7228 207.416 91.4302V98.2746C207.416 101.982 206.353 104.858 204.229 106.901C202.105 108.898 199.116 109.896 195.262 109.896H185.925C185.332 109.896 185.036 110.157 185.036 110.68V124.155C185.036 125.153 184.517 125.652 183.479 125.652ZM185.851 101.982H193.706C195.287 101.982 196.399 101.673 197.041 101.055C197.683 100.39 198.004 99.3203 198.004 97.8469V91.858C198.004 90.337 197.683 89.2675 197.041 88.6496C196.399 87.9842 195.287 87.6515 193.706 87.6515H185.851C185.307 87.6515 185.036 87.9129 185.036 88.4358V101.198C185.036 101.721 185.307 101.982 185.851 101.982Z" fill="#E61C44"/>
<path d="M222.405 125.652H216.106C215.069 125.652 214.55 125.153 214.55 124.155V77.0283C214.55 76.0302 215.069 75.5311 216.106 75.5311H222.405C223.443 75.5311 223.962 76.0302 223.962 77.0283V124.155C223.962 125.153 223.443 125.652 222.405 125.652Z" fill="#E61C44"/>
<path d="M245.754 125.652H243.975C240.072 125.652 237.059 124.654 234.934 122.658C232.81 120.662 231.748 117.786 231.748 114.031V100.913C231.748 97.1577 232.81 94.2821 234.934 92.2858C237.059 90.2895 240.072 89.2913 243.975 89.2913H261.094C262.181 89.2913 262.724 89.7904 262.724 90.7885V124.155C262.724 125.153 262.181 125.652 261.094 125.652H254.869C253.832 125.652 253.313 125.153 253.313 124.155V121.802H253.016C252.473 123.086 251.51 124.06 250.126 124.726C248.743 125.343 247.286 125.652 245.754 125.652ZM253.313 112.391V97.9182C253.313 97.3953 253.016 97.1339 252.424 97.1339H245.458C243.877 97.1339 242.765 97.4666 242.123 98.1321C241.481 98.75 241.159 99.8194 241.159 101.34V113.603C241.159 115.124 241.481 116.218 242.123 116.883C242.765 117.501 243.877 117.81 245.458 117.81H248.199C251.608 117.81 253.313 116.004 253.313 112.391Z" fill="#E61C44"/>
<path d="M276.996 137.701H272.253C271.265 137.701 270.771 137.179 270.771 136.133V131.356C270.771 130.31 271.265 129.788 272.253 129.788H273.809C276.921 129.788 279.021 129.36 280.108 128.504C281.244 127.696 282.109 126.104 282.702 123.727H278.774C277.835 123.727 277.218 123.228 276.921 122.23L268.251 90.7885C267.955 89.7904 268.325 89.2913 269.363 89.2913H275.958C276.946 89.2913 277.564 89.7904 277.811 90.7885L284.184 117.097H284.48L290.779 90.7885C290.977 89.7904 291.594 89.2913 292.632 89.2913H298.857C300.092 89.2913 300.586 89.8141 300.339 90.8598L291.298 125.652C290.211 129.597 288.531 132.592 286.259 134.636C283.986 136.68 280.898 137.701 276.996 137.701Z" fill="#E61C44"/>
<path d="M20.4835 125.652H12.6282C8.72529 125.652 5.71164 124.654 3.58726 122.658C1.46288 120.662 0.400696 117.786 0.400696 114.031V91.4302C0.400696 87.6753 1.46288 84.7996 3.58726 82.8033C5.71164 80.807 8.72529 79.8089 12.6282 79.8089H20.4835C24.337 79.8089 27.3259 80.8308 29.4503 82.8746C31.5747 84.8709 32.6369 87.7228 32.6369 91.4302V93.5691C32.6369 94.6148 32.1181 95.1376 31.0806 95.1376H24.7816C23.7441 95.1376 23.2254 94.6148 23.2254 93.5691V91.858C23.2254 90.337 22.9043 89.2675 22.262 88.6496C21.6198 87.9842 20.5082 87.6515 18.9272 87.6515H14.1103C12.5788 87.6515 11.4672 87.9842 10.7756 88.6496C10.1333 89.2675 9.81218 90.337 9.81218 91.858V113.603C9.81218 115.124 10.1333 116.218 10.7756 116.883C11.4672 117.501 12.5788 117.81 14.1103 117.81H18.9272C20.5082 117.81 21.6198 117.501 22.262 116.883C22.9043 116.218 23.2254 115.124 23.2254 113.603V109.112C23.2254 108.589 22.9537 108.327 22.4102 108.327H17.9639C16.9264 108.327 16.4076 107.828 16.4076 106.83V101.982C16.4076 100.984 16.9264 100.485 17.9639 100.485H30.9324C32.0687 100.485 32.6369 101.031 32.6369 102.125V114.031C32.6369 117.739 31.5747 120.614 29.4503 122.658C27.3259 124.654 24.337 125.652 20.4835 125.652Z" fill="#DDE3F0"/>
<path d="M54.0477 125.652H52.2692C48.3663 125.652 45.3526 124.654 43.2283 122.658C41.1039 120.662 40.0417 117.786 40.0417 114.031V100.913C40.0417 97.1577 41.1039 94.282 43.2283 92.2857C45.3526 90.2895 48.3663 89.2913 52.2692 89.2913H69.3877C70.4746 89.2913 71.0181 89.7904 71.0181 90.7885V124.155C71.0181 125.153 70.4746 125.652 69.3877 125.652H63.1628C62.1253 125.652 61.6066 125.153 61.6066 124.155V121.802H61.3102C60.7667 123.086 59.8033 124.06 58.42 124.726C57.0367 125.343 55.5793 125.652 54.0477 125.652ZM61.6066 112.391V97.9182C61.6066 97.3953 61.3101 97.1339 60.7173 97.1339H53.7513C52.1704 97.1339 51.0588 97.4666 50.4165 98.132C49.7743 98.7499 49.4532 99.8194 49.4532 101.34V113.603C49.4532 115.124 49.7743 116.218 50.4165 116.883C51.0588 117.501 52.1704 117.81 53.7513 117.81H56.4933C59.9021 117.81 61.6066 116.004 61.6066 112.391Z" fill="#DDE3F0"/>
<path d="M86.9937 125.652H80.6947C79.6572 125.652 79.1385 125.153 79.1385 124.155V90.7885C79.1385 89.7904 79.6572 89.2913 80.6947 89.2913H86.9937C88.0312 89.2913 88.5499 89.7904 88.5499 90.7885V93.1413H88.8464C89.4392 92.0006 90.4273 91.0737 91.8106 90.3607C93.2433 89.6478 94.8737 89.2913 96.7016 89.2913H98.7766C103.075 89.2913 106.163 90.8123 108.04 93.8543C109.72 90.8123 112.61 89.2913 116.71 89.2913H118.859C122.663 89.2913 125.529 90.2895 127.456 92.2857C129.432 94.282 130.42 97.1577 130.42 100.913V124.155C130.42 125.153 129.901 125.652 128.864 125.652H122.565C121.527 125.652 121.008 125.153 121.008 124.155V101.34C121.008 99.8194 120.687 98.7499 120.045 98.132C119.403 97.4666 118.291 97.1339 116.71 97.1339H114.858C111.449 97.1339 109.744 98.9638 109.744 102.624V124.155C109.744 125.153 109.201 125.652 108.114 125.652H101.889C100.852 125.652 100.333 125.153 100.333 124.155V101.34C100.333 99.8194 99.987 98.7499 99.2953 98.132C98.6531 97.4666 97.5415 97.1339 95.9606 97.1339H93.6633C90.2544 97.1339 88.5499 98.9401 88.5499 102.552V124.155C88.5499 125.153 88.0312 125.652 86.9937 125.652Z" fill="#DDE3F0"/>
<path d="M166.128 125.652H149.751C145.848 125.652 142.834 124.654 140.71 122.658C138.585 120.662 137.523 117.786 137.523 114.031V100.913C137.523 97.1577 138.585 94.282 140.71 92.2857C142.834 90.2895 145.848 89.2913 149.751 89.2913H155.605C159.508 89.2913 162.522 90.2895 164.646 92.2857C166.77 94.282 167.833 97.1577 167.833 100.913V109.967C167.833 110.965 167.314 111.464 166.276 111.464H147.676C147.083 111.464 146.786 111.726 146.786 112.249V113.817C146.786 115.291 147.107 116.36 147.75 117.026C148.441 117.643 149.578 117.952 151.159 117.952H166.128C167.166 117.952 167.684 118.475 167.684 119.521V124.226C167.684 124.749 167.561 125.13 167.314 125.367C167.116 125.557 166.721 125.652 166.128 125.652ZM147.676 105.404H157.754C158.298 105.404 158.569 105.143 158.569 104.62V101.198C158.569 99.6768 158.248 98.6074 157.606 97.9895C156.964 97.3716 155.852 97.0626 154.271 97.0626H151.159C149.578 97.0626 148.466 97.3716 147.824 97.9895C147.182 98.6074 146.86 99.6768 146.86 101.198V104.62C146.86 105.143 147.132 105.404 147.676 105.404Z" fill="#DDE3F0"/>
</svg>
